<svg width="587" height="49" viewBox="0 0 587 49" fill="none" xmlns="http://www.w3.org/2000/svg">
<circle cx="16" cy="37" r="12" fill="#109CF1"/>
<path d="M9.4665 40.16C10.8265 39.248 11.9145 38.344 12.7305 37.448C13.5465 36.544 13.9545 35.704 13.9545 34.928C13.9545 34.448 13.8305 34.064 13.5825 33.776C13.3425 33.48 12.9505 33.332 12.4065 33.332C11.8465 33.332 11.4225 33.512 11.1345 33.872C10.8465 34.224 10.6865 34.712 10.6545 35.336H9.5745C9.6305 34.392 9.9225 33.668 10.4505 33.164C10.9785 32.652 11.6585 32.396 12.4905 32.396C13.2825 32.396 13.9105 32.608 14.3745 33.032C14.8385 33.456 15.0705 34.056 15.0705 34.832C15.0705 35.472 14.8625 36.124 14.4465 36.788C14.0385 37.444 13.5225 38.056 12.8985 38.624C12.2825 39.184 11.6465 39.66 10.9905 40.052H15.2865V40.952H9.4665V40.16ZM19.4591 32.312C20.0031 32.312 20.4711 32.408 20.8631 32.6C21.2551 32.792 21.5511 33.056 21.7511 33.392C21.9511 33.728 22.0511 34.108 22.0511 34.532C22.0511 35.06 21.8951 35.504 21.5831 35.864C21.2791 36.224 20.8311 36.44 20.2391 36.512V36.584C20.8551 36.744 21.3351 36.992 21.6791 37.328C22.0311 37.664 22.2071 38.128 22.2071 38.72C22.2071 39.416 21.9751 39.984 21.5111 40.424C21.0471 40.864 20.3791 41.084 19.5071 41.084C18.6351 41.084 17.9271 40.86 17.3831 40.412C16.8471 39.956 16.5311 39.292 16.4351 38.42H17.5151C17.5871 38.948 17.7871 39.368 18.1151 39.68C18.4511 39.992 18.9031 40.148 19.4711 40.148C20.0071 40.148 20.4191 40.012 20.7071 39.74C20.9951 39.46 21.1391 39.1 21.1391 38.66C21.1391 38.132 20.9311 37.732 20.5151 37.46C20.1071 37.18 19.5231 37.04 18.7631 37.04H18.4751V36.128H18.7631C20.2351 36.128 20.9711 35.636 20.9711 34.652C20.9711 34.22 20.8351 33.876 20.5631 33.62C20.2911 33.364 19.9151 33.236 19.4351 33.236C18.9551 33.236 18.5511 33.376 18.2231 33.656C17.8951 33.928 17.7031 34.332 17.6471 34.868H16.5791C16.6351 34.068 16.9111 33.444 17.4071 32.996C17.9111 32.54 18.5951 32.312 19.4591 32.312Z" fill="white"/>
<path d="M101.279 40.16C102.639 39.248 103.727 38.344 104.543 37.448C105.359 36.544 105.767 35.704 105.767 34.928C105.767 34.448 105.643 34.064 105.395 33.776C105.155 33.48 104.763 33.332 104.219 33.332C103.659 33.332 103.235 33.512 102.947 33.872C102.659 34.224 102.499 34.712 102.467 35.336H101.387C101.443 34.392 101.735 33.668 102.263 33.164C102.791 32.652 103.471 32.396 104.303 32.396C105.095 32.396 105.723 32.608 106.187 33.032C106.651 33.456 106.883 34.056 106.883 34.832C106.883 35.472 106.675 36.124 106.259 36.788C105.851 37.444 105.335 38.056 104.711 38.624C104.095 39.184 103.459 39.66 102.803 40.052H107.099V40.952H101.279V40.16ZM108.056 39.056V38.144L112.4 32.48H113.576V38.108H114.824V39.056H113.576V41H112.472V39.056H108.056ZM112.544 33.812L109.208 38.108H112.544V33.812Z" fill="#109CF1"/>
<path d="M285.273 40.16C286.633 39.248 287.721 38.344 288.537 37.448C289.353 36.544 289.761 35.704 289.761 34.928C289.761 34.448 289.637 34.064 289.389 33.776C289.149 33.48 288.757 33.332 288.213 33.332C287.653 33.332 287.229 33.512 286.941 33.872C286.653 34.224 286.493 34.712 286.461 35.336H285.381C285.437 34.392 285.729 33.668 286.257 33.164C286.785 32.652 287.465 32.396 288.297 32.396C289.089 32.396 289.717 32.608 290.181 33.032C290.645 33.456 290.877 34.056 290.877 34.832C290.877 35.472 290.669 36.124 290.253 36.788C289.845 37.444 289.329 38.056 288.705 38.624C288.089 39.184 287.453 39.66 286.797 40.052H291.093V40.952H285.273V40.16ZM297.138 34.796C297.074 34.292 296.902 33.904 296.622 33.632C296.35 33.352 295.97 33.212 295.482 33.212C294.802 33.212 294.286 33.476 293.934 34.004C293.59 34.532 293.418 35.368 293.418 36.512L293.43 36.956C293.55 36.476 293.826 36.096 294.258 35.816C294.69 35.528 295.198 35.384 295.782 35.384C296.622 35.384 297.278 35.636 297.75 36.14C298.23 36.644 298.47 37.348 298.47 38.252C298.47 38.78 298.366 39.26 298.158 39.692C297.95 40.116 297.63 40.456 297.198 40.712C296.774 40.96 296.246 41.084 295.614 41.084C294.406 41.084 293.574 40.704 293.118 39.944C292.67 39.184 292.446 38.152 292.446 36.848C292.446 35.344 292.686 34.216 293.166 33.464C293.654 32.704 294.446 32.324 295.542 32.324C296.35 32.324 296.97 32.552 297.402 33.008C297.842 33.464 298.102 34.06 298.182 34.796H297.138ZM293.55 38.072C293.55 38.656 293.718 39.148 294.054 39.548C294.398 39.94 294.91 40.136 295.59 40.136C296.15 40.136 296.598 39.972 296.934 39.644C297.27 39.308 297.438 38.84 297.438 38.24C297.438 37.592 297.27 37.1 296.934 36.764C296.598 36.42 296.134 36.248 295.542 36.248C295.206 36.248 294.886 36.316 294.582 36.452C294.278 36.588 294.03 36.796 293.838 37.076C293.646 37.348 293.55 37.68 293.55 38.072Z" fill="#4C5862"/>
<path d="M193.302 40.16C194.662 39.248 195.75 38.344 196.566 37.448C197.382 36.544 197.79 35.704 197.79 34.928C197.79 34.448 197.666 34.064 197.418 33.776C197.178 33.48 196.786 33.332 196.242 33.332C195.682 33.332 195.258 33.512 194.97 33.872C194.682 34.224 194.522 34.712 194.49 35.336H193.41C193.466 34.392 193.758 33.668 194.286 33.164C194.814 32.652 195.494 32.396 196.326 32.396C197.118 32.396 197.746 32.608 198.21 33.032C198.674 33.456 198.906 34.056 198.906 34.832C198.906 35.472 198.698 36.124 198.282 36.788C197.874 37.444 197.358 38.056 196.734 38.624C196.118 39.184 195.482 39.66 194.826 40.052H199.122V40.952H193.302V40.16ZM206.091 33.404H201.747V36.236C201.947 35.964 202.235 35.748 202.611 35.588C202.987 35.428 203.399 35.348 203.847 35.348C204.447 35.348 204.943 35.476 205.335 35.732C205.735 35.98 206.027 36.312 206.211 36.728C206.403 37.136 206.499 37.592 206.499 38.096C206.499 38.968 206.255 39.68 205.767 40.232C205.279 40.784 204.563 41.06 203.619 41.06C202.771 41.06 202.079 40.832 201.543 40.376C201.007 39.912 200.707 39.292 200.643 38.516H201.723C201.811 39.012 202.015 39.4 202.335 39.68C202.663 39.952 203.075 40.088 203.571 40.088C204.187 40.088 204.651 39.904 204.963 39.536C205.275 39.168 205.431 38.684 205.431 38.084C205.431 37.5 205.271 37.044 204.951 36.716C204.631 36.388 204.179 36.224 203.595 36.224C203.179 36.224 202.815 36.316 202.503 36.5C202.191 36.676 201.955 36.916 201.795 37.22H200.739V32.432H206.091V33.404Z" fill="#4C5862"/>
<path d="M377.965 40.16C379.325 39.248 380.413 38.344 381.229 37.448C382.045 36.544 382.453 35.704 382.453 34.928C382.453 34.448 382.329 34.064 382.081 33.776C381.841 33.48 381.449 33.332 380.905 33.332C380.345 33.332 379.921 33.512 379.633 33.872C379.345 34.224 379.185 34.712 379.153 35.336H378.073C378.129 34.392 378.421 33.668 378.949 33.164C379.477 32.652 380.157 32.396 380.989 32.396C381.781 32.396 382.409 32.608 382.873 33.032C383.337 33.456 383.569 34.056 383.569 34.832C383.569 35.472 383.361 36.124 382.945 36.788C382.537 37.444 382.021 38.056 381.397 38.624C380.781 39.184 380.145 39.66 379.489 40.052H383.785V40.952H377.965V40.16ZM390.081 33.332L386.877 41H385.725L388.977 33.44H384.537V32.492H390.081V33.332Z" fill="#4C5862"/>
<path d="M469.25 40.16C470.61 39.248 471.698 38.344 472.514 37.448C473.33 36.544 473.738 35.704 473.738 34.928C473.738 34.448 473.614 34.064 473.366 33.776C473.126 33.48 472.734 33.332 472.19 33.332C471.63 33.332 471.206 33.512 470.918 33.872C470.63 34.224 470.47 34.712 470.438 35.336H469.358C469.414 34.392 469.706 33.668 470.234 33.164C470.762 32.652 471.442 32.396 472.274 32.396C473.066 32.396 473.694 32.608 474.158 33.032C474.622 33.456 474.854 34.056 474.854 34.832C474.854 35.472 474.646 36.124 474.23 36.788C473.822 37.444 473.306 38.056 472.682 38.624C472.066 39.184 471.43 39.66 470.774 40.052H475.07V40.952H469.25V40.16ZM476.506 34.532C476.506 34.116 476.618 33.736 476.842 33.392C477.066 33.048 477.398 32.776 477.838 32.576C478.278 32.376 478.802 32.276 479.41 32.276C480.018 32.276 480.538 32.376 480.97 32.576C481.41 32.776 481.742 33.048 481.966 33.392C482.19 33.736 482.302 34.116 482.302 34.532C482.302 35.004 482.174 35.412 481.918 35.756C481.662 36.1 481.274 36.344 480.754 36.488C481.314 36.64 481.75 36.904 482.062 37.28C482.374 37.656 482.53 38.12 482.53 38.672C482.53 39.472 482.246 40.1 481.678 40.556C481.11 41.012 480.354 41.24 479.41 41.24C478.466 41.24 477.71 41.012 477.142 40.556C476.574 40.1 476.29 39.472 476.29 38.672C476.29 38.12 476.442 37.656 476.746 37.28C477.058 36.904 477.494 36.64 478.054 36.488C477.534 36.344 477.146 36.1 476.89 35.756C476.634 35.412 476.506 35.004 476.506 34.532ZM477.586 34.688C477.586 35.168 477.75 35.54 478.078 35.804C478.406 36.06 478.85 36.188 479.41 36.188C479.97 36.188 480.41 36.06 480.73 35.804C481.058 35.54 481.222 35.168 481.222 34.688C481.222 34.208 481.058 33.84 480.73 33.584C480.402 33.32 479.962 33.188 479.41 33.188C478.858 33.188 478.414 33.32 478.078 33.584C477.75 33.84 477.586 34.208 477.586 34.688ZM477.358 38.612C477.358 39.156 477.542 39.58 477.91 39.884C478.278 40.18 478.778 40.328 479.41 40.328C480.034 40.328 480.53 40.176 480.898 39.872C481.266 39.568 481.45 39.148 481.45 38.612C481.45 38.068 481.258 37.656 480.874 37.376C480.49 37.096 480.002 36.956 479.41 36.956C478.81 36.956 478.318 37.096 477.934 37.376C477.55 37.656 477.358 38.068 477.358 38.612Z" fill="#4C5862"/>
<path d="M564.349 40.16C565.709 39.248 566.797 38.344 567.613 37.448C568.429 36.544 568.837 35.704 568.837 34.928C568.837 34.448 568.713 34.064 568.465 33.776C568.225 33.48 567.833 33.332 567.289 33.332C566.729 33.332 566.305 33.512 566.017 33.872C565.729 34.224 565.569 34.712 565.537 35.336H564.457C564.513 34.392 564.805 33.668 565.333 33.164C565.861 32.652 566.541 32.396 567.373 32.396C568.165 32.396 568.793 32.608 569.257 33.032C569.721 33.456 569.953 34.056 569.953 34.832C569.953 35.472 569.745 36.124 569.329 36.788C568.921 37.444 568.405 38.056 567.781 38.624C567.165 39.184 566.529 39.66 565.873 40.052H570.169V40.952H564.349V40.16ZM572.674 38.624C572.746 39.128 572.922 39.516 573.202 39.788C573.482 40.06 573.866 40.196 574.354 40.196C575.026 40.196 575.534 39.936 575.878 39.416C576.222 38.896 576.394 38.072 576.394 36.944C576.394 36.728 576.39 36.564 576.382 36.452C576.27 36.932 575.998 37.316 575.566 37.604C575.134 37.892 574.626 38.036 574.042 38.036C573.202 38.036 572.542 37.784 572.062 37.28C571.582 36.776 571.342 36.072 571.342 35.168C571.342 34.64 571.446 34.16 571.654 33.728C571.862 33.296 572.178 32.956 572.602 32.708C573.034 32.452 573.566 32.324 574.198 32.324C575.414 32.324 576.246 32.7 576.694 33.452C577.15 34.196 577.378 35.22 577.378 36.524C577.378 38.012 577.146 39.148 576.682 39.932C576.218 40.708 575.442 41.096 574.354 41.096C573.546 41.096 572.91 40.868 572.446 40.412C571.99 39.948 571.722 39.352 571.642 38.624H572.674ZM576.274 35.336C576.274 34.76 576.102 34.272 575.758 33.872C575.422 33.472 574.914 33.272 574.234 33.272C573.674 33.272 573.226 33.44 572.89 33.776C572.554 34.112 572.386 34.58 572.386 35.18C572.386 35.82 572.554 36.312 572.89 36.656C573.226 37 573.686 37.172 574.27 37.172C574.606 37.172 574.926 37.104 575.23 36.968C575.542 36.832 575.794 36.624 575.986 36.344C576.178 36.064 576.274 35.728 576.274 35.336Z" fill="#4C5862"/>
<path opacity="0.5" d="M10.5852 11.556C10.5852 12.0067 10.4768 12.427 10.2602 12.817C10.0435 13.1983 9.71415 13.506 9.27215 13.74C8.83015 13.974 8.28849 14.091 7.64715 14.091C7.02315 14.091 6.46415 13.9827 5.97015 13.766C5.47615 13.5407 5.08182 13.2287 4.78715 12.83C4.49249 12.4313 4.32349 11.972 4.28015 11.452H5.86615C5.90949 11.8507 6.07849 12.193 6.37315 12.479C6.67649 12.765 7.07949 12.908 7.58215 12.908C8.03282 12.908 8.37949 12.7867 8.62215 12.544C8.87349 12.3013 8.99915 11.9893 8.99915 11.608C8.99915 11.2787 8.90815 11.01 8.72615 10.802C8.54415 10.5853 8.31882 10.4163 8.05015 10.295C7.78149 10.1737 7.41315 10.035 6.94515 9.879C6.37315 9.697 5.90515 9.515 5.54115 9.333C5.18582 9.151 4.88249 8.88667 4.63115 8.54C4.37982 8.19333 4.25415 7.73833 4.25415 7.175C4.25415 6.681 4.37549 6.24767 4.61815 5.875C4.86082 5.50233 5.20749 5.21633 5.65815 5.017C6.10882 4.809 6.62882 4.705 7.21815 4.705C8.15415 4.705 8.89515 4.93033 9.44115 5.381C9.99582 5.83167 10.3122 6.421 10.3902 7.149H8.79115C8.73049 6.80233 8.56582 6.50767 8.29715 6.265C8.03715 6.01367 7.67749 5.888 7.21815 5.888C6.80215 5.888 6.46849 5.99633 6.21715 6.213C5.96582 6.421 5.84015 6.72433 5.84015 7.123C5.84015 7.435 5.92682 7.695 6.10015 7.903C6.27349 8.10233 6.49015 8.26267 6.75015 8.384C7.01882 8.49667 7.38282 8.631 7.84215 8.787C8.42282 8.969 8.89515 9.15533 9.25915 9.346C9.63182 9.528 9.94382 9.79667 10.1952 10.152C10.4552 10.5073 10.5852 10.9753 10.5852 11.556ZM18.7728 6.837V14H17.2778V12.44C17.0958 12.9687 16.7794 13.3803 16.3288 13.675C15.8781 13.961 15.3538 14.104 14.7558 14.104C13.9238 14.104 13.2564 13.8353 12.7538 13.298C12.2511 12.7607 11.9998 11.9937 11.9998 10.997V6.837H13.4818V10.841C13.4818 11.491 13.6464 11.9937 13.9758 12.349C14.3051 12.6957 14.7558 12.869 15.3278 12.869C15.9171 12.869 16.3894 12.6783 16.7448 12.297C17.1001 11.9157 17.2778 11.361 17.2778 10.633V6.837H18.7728ZM24.6517 6.72C25.4837 6.72 26.151 6.98867 26.6537 7.526C27.1564 8.06333 27.4077 8.83033 27.4077 9.827V14H25.9257V9.983C25.9257 9.34167 25.761 8.84767 25.4317 8.501C25.1024 8.14567 24.6517 7.968 24.0797 7.968C23.4904 7.968 23.018 8.15867 22.6627 8.54C22.3074 8.91267 22.1297 9.463 22.1297 10.191V14H20.6477V6.837H22.1297V8.41C22.3204 7.87267 22.641 7.45667 23.0917 7.162C23.5424 6.86733 24.0624 6.72 24.6517 6.72Z" fill="#334D6E"/>
<path d="M104.197 4.965V14H102.702V7.227L100.089 14H98.7886L96.1626 7.227V14H94.6806V4.965H96.4746L99.4646 12.18L102.403 4.965H104.197ZM109.355 6.746C110.049 6.746 110.673 6.89333 111.227 7.188C111.782 7.48267 112.215 7.90733 112.527 8.462C112.839 9.01667 112.995 9.66667 112.995 10.412C112.995 11.166 112.839 11.8203 112.527 12.375C112.215 12.9297 111.782 13.3543 111.227 13.649C110.673 13.9437 110.049 14.091 109.355 14.091C108.662 14.091 108.038 13.9437 107.483 13.649C106.937 13.3543 106.504 12.9297 106.183 12.375C105.871 11.8117 105.715 11.1573 105.715 10.412C105.715 9.66667 105.871 9.01667 106.183 8.462C106.504 7.90733 106.937 7.48267 107.483 7.188C108.038 6.89333 108.662 6.746 109.355 6.746ZM109.355 8.033C108.974 8.033 108.623 8.11967 108.302 8.293C107.982 8.46633 107.722 8.735 107.522 9.099C107.332 9.45433 107.236 9.892 107.236 10.412C107.236 10.9407 107.332 11.3827 107.522 11.738C107.722 12.0933 107.982 12.3577 108.302 12.531C108.623 12.7043 108.974 12.791 109.355 12.791C109.737 12.791 110.088 12.7043 110.408 12.531C110.729 12.3577 110.985 12.0933 111.175 11.738C111.375 11.3827 111.474 10.9407 111.474 10.412C111.474 9.892 111.375 9.45433 111.175 9.099C110.985 8.735 110.729 8.46633 110.408 8.293C110.088 8.11967 109.737 8.033 109.355 8.033ZM118.524 6.72C119.356 6.72 120.024 6.98867 120.526 7.526C121.029 8.06333 121.28 8.83033 121.28 9.827V14H119.798V9.983C119.798 9.34167 119.634 8.84767 119.304 8.501C118.975 8.14567 118.524 7.968 117.952 7.968C117.363 7.968 116.891 8.15867 116.535 8.54C116.18 8.91267 116.002 9.463 116.002 10.191V14H114.52V6.837H116.002V8.41C116.193 7.87267 116.514 7.45667 116.964 7.162C117.415 6.86733 117.935 6.72 118.524 6.72Z" fill="#109CF1"/>
<path opacity="0.5" d="M194.912 4.822V6.018H192.351V14H190.856V6.018H188.308V4.822H194.912ZM202.722 6.837V14H201.227V12.44C201.045 12.9687 200.729 13.3803 200.278 13.675C199.827 13.961 199.303 14.104 198.705 14.104C197.873 14.104 197.206 13.8353 196.703 13.298C196.2 12.7607 195.949 11.9937 195.949 10.997V6.837H197.431V10.841C197.431 11.491 197.596 11.9937 197.925 12.349C198.254 12.6957 198.705 12.869 199.277 12.869C199.866 12.869 200.339 12.6783 200.694 12.297C201.049 11.9157 201.227 11.361 201.227 10.633V6.837H202.722ZM211.253 10.074C211.253 10.3167 211.236 10.529 211.201 10.711H205.689C205.715 11.4477 205.919 11.9937 206.3 12.349C206.681 12.7043 207.154 12.882 207.717 12.882C208.211 12.882 208.627 12.7563 208.965 12.505C209.312 12.2537 209.524 11.92 209.602 11.504H211.188C211.093 12.0067 210.893 12.453 210.59 12.843C210.287 13.233 209.892 13.5407 209.407 13.766C208.922 13.9827 208.38 14.091 207.782 14.091C207.089 14.091 206.473 13.9437 205.936 13.649C205.407 13.3543 204.991 12.9297 204.688 12.375C204.385 11.8203 204.233 11.166 204.233 10.412C204.233 9.66667 204.385 9.01667 204.688 8.462C204.991 7.90733 205.407 7.48267 205.936 7.188C206.473 6.89333 207.089 6.746 207.782 6.746C208.484 6.746 209.095 6.89333 209.615 7.188C210.144 7.474 210.547 7.87267 210.824 8.384C211.11 8.88667 211.253 9.45 211.253 10.074ZM209.758 10.035C209.775 9.567 209.693 9.177 209.511 8.865C209.338 8.54433 209.095 8.31033 208.783 8.163C208.48 8.007 208.146 7.929 207.782 7.929C207.201 7.929 206.716 8.10667 206.326 8.462C205.936 8.81733 205.724 9.34167 205.689 10.035H209.758Z" fill="#334D6E"/>
<path opacity="0.5" d="M289.465 4.822L287.177 14H285.357L283.42 6.902L281.483 14H279.663L277.375 4.822H279L280.586 12.284L282.601 4.822H284.239L286.254 12.284L287.84 4.822H289.465ZM297.548 10.074C297.548 10.3167 297.531 10.529 297.496 10.711H291.984C292.01 11.4477 292.214 11.9937 292.595 12.349C292.976 12.7043 293.449 12.882 294.012 12.882C294.506 12.882 294.922 12.7563 295.26 12.505C295.607 12.2537 295.819 11.92 295.897 11.504H297.483C297.388 12.0067 297.188 12.453 296.885 12.843C296.582 13.233 296.187 13.5407 295.702 13.766C295.217 13.9827 294.675 14.091 294.077 14.091C293.384 14.091 292.768 13.9437 292.231 13.649C291.702 13.3543 291.286 12.9297 290.983 12.375C290.68 11.8203 290.528 11.166 290.528 10.412C290.528 9.66667 290.68 9.01667 290.983 8.462C291.286 7.90733 291.702 7.48267 292.231 7.188C292.768 6.89333 293.384 6.746 294.077 6.746C294.779 6.746 295.39 6.89333 295.91 7.188C296.439 7.474 296.842 7.87267 297.119 8.384C297.405 8.88667 297.548 9.45 297.548 10.074ZM296.053 10.035C296.07 9.567 295.988 9.177 295.806 8.865C295.633 8.54433 295.39 8.31033 295.078 8.163C294.775 8.007 294.441 7.929 294.077 7.929C293.496 7.929 293.011 8.10667 292.621 8.462C292.231 8.81733 292.019 9.34167 291.984 10.035H296.053ZM301.952 6.746C302.602 6.746 303.157 6.90633 303.616 7.227C304.075 7.54767 304.396 7.97233 304.578 8.501V4.38H306.073V14H304.578V12.336C304.396 12.8647 304.075 13.2893 303.616 13.61C303.157 13.9307 302.602 14.091 301.952 14.091C301.328 14.091 300.769 13.9437 300.275 13.649C299.79 13.3543 299.408 12.9297 299.131 12.375C298.854 11.8203 298.715 11.166 298.715 10.412C298.715 9.66667 298.854 9.01667 299.131 8.462C299.408 7.90733 299.79 7.48267 300.275 7.188C300.769 6.89333 301.328 6.746 301.952 6.746ZM302.407 8.046C301.748 8.046 301.22 8.25833 300.821 8.683C300.431 9.099 300.236 9.67533 300.236 10.412C300.236 11.1487 300.431 11.7293 300.821 12.154C301.22 12.57 301.748 12.778 302.407 12.778C302.823 12.778 303.196 12.6827 303.525 12.492C303.854 12.2927 304.114 12.0153 304.305 11.66C304.496 11.3047 304.591 10.8887 304.591 10.412C304.591 9.944 304.496 9.53233 304.305 9.177C304.114 8.813 303.854 8.53567 303.525 8.345C303.196 8.14567 302.823 8.046 302.407 8.046Z" fill="#334D6E"/>
<path opacity="0.5" d="M474.564 4.822V6.018H470.625V8.865H473.875V10.009H470.625V14H469.143V4.822H474.564ZM477.466 8.241C477.708 7.773 478.055 7.40467 478.506 7.136C478.956 6.85867 479.476 6.72 480.066 6.72V8.332H479.624C478.974 8.332 478.449 8.49233 478.051 8.813C477.661 9.125 477.466 9.645 477.466 10.373V14H475.984V6.837H477.466V8.241ZM481.068 4.757C481.068 4.50567 481.155 4.29767 481.328 4.133C481.501 3.96833 481.731 3.886 482.017 3.886C482.303 3.886 482.533 3.96833 482.706 4.133C482.888 4.29767 482.979 4.50567 482.979 4.757C482.979 5.00833 482.888 5.212 482.706 5.368C482.533 5.524 482.303 5.602 482.017 5.602C481.731 5.602 481.501 5.524 481.328 5.368C481.155 5.212 481.068 5.00833 481.068 4.757ZM482.758 6.837V14H481.276V6.837H482.758Z" fill="#334D6E"/>
<path opacity="0.5" d="M378.709 4.822V6.018H376.148V14H374.653V6.018H372.105V4.822H378.709ZM383.919 6.72C384.751 6.72 385.418 6.98867 385.921 7.526C386.424 8.06333 386.675 8.83033 386.675 9.827V14H385.193V9.983C385.193 9.34167 385.028 8.84767 384.699 8.501C384.37 8.14567 383.919 7.968 383.347 7.968C382.758 7.968 382.285 8.15867 381.93 8.54C381.575 8.91267 381.397 9.463 381.397 10.191V14H379.915V4.38H381.397V8.41C381.588 7.87267 381.908 7.45667 382.359 7.162C382.81 6.86733 383.33 6.72 383.919 6.72ZM395.112 6.837V14H393.617V12.44C393.435 12.9687 393.119 13.3803 392.668 13.675C392.217 13.961 391.693 14.104 391.095 14.104C390.263 14.104 389.596 13.8353 389.093 13.298C388.59 12.7607 388.339 11.9937 388.339 10.997V6.837H389.821V10.841C389.821 11.491 389.986 11.9937 390.315 12.349C390.644 12.6957 391.095 12.869 391.667 12.869C392.256 12.869 392.729 12.6783 393.084 12.297C393.439 11.9157 393.617 11.361 393.617 10.633V6.837H395.112Z" fill="#334D6E"/>
<path opacity="0.5" d="M567.14 11.556C567.14 12.0067 567.032 12.427 566.815 12.817C566.599 13.1983 566.269 13.506 565.827 13.74C565.385 13.974 564.844 14.091 564.202 14.091C563.578 14.091 563.019 13.9827 562.525 13.766C562.031 13.5407 561.637 13.2287 561.342 12.83C561.048 12.4313 560.879 11.972 560.835 11.452H562.421C562.465 11.8507 562.634 12.193 562.928 12.479C563.232 12.765 563.635 12.908 564.137 12.908C564.588 12.908 564.935 12.7867 565.177 12.544C565.429 12.3013 565.554 11.9893 565.554 11.608C565.554 11.2787 565.463 11.01 565.281 10.802C565.099 10.5853 564.874 10.4163 564.605 10.295C564.337 10.1737 563.968 10.035 563.5 9.879C562.928 9.697 562.46 9.515 562.096 9.333C561.741 9.151 561.438 8.88667 561.186 8.54C560.935 8.19333 560.809 7.73833 560.809 7.175C560.809 6.681 560.931 6.24767 561.173 5.875C561.416 5.50233 561.763 5.21633 562.213 5.017C562.664 4.809 563.184 4.705 563.773 4.705C564.709 4.705 565.45 4.93033 565.996 5.381C566.551 5.83167 566.867 6.421 566.945 7.149H565.346C565.286 6.80233 565.121 6.50767 564.852 6.265C564.592 6.01367 564.233 5.888 563.773 5.888C563.357 5.888 563.024 5.99633 562.772 6.213C562.521 6.421 562.395 6.72433 562.395 7.123C562.395 7.435 562.482 7.695 562.655 7.903C562.829 8.10233 563.045 8.26267 563.305 8.384C563.574 8.49667 563.938 8.631 564.397 8.787C564.978 8.969 565.45 9.15533 565.814 9.346C566.187 9.528 566.499 9.79667 566.75 10.152C567.01 10.5073 567.14 10.9753 567.14 11.556ZM571.597 6.746C572.247 6.746 572.802 6.90633 573.261 7.227C573.72 7.54767 574.045 7.97233 574.236 8.501V6.837H575.718V14H574.236V12.336C574.045 12.8647 573.72 13.2893 573.261 13.61C572.802 13.9307 572.247 14.091 571.597 14.091C570.973 14.091 570.414 13.9437 569.92 13.649C569.435 13.3543 569.053 12.9297 568.776 12.375C568.499 11.8203 568.36 11.166 568.36 10.412C568.36 9.66667 568.499 9.01667 568.776 8.462C569.053 7.90733 569.435 7.48267 569.92 7.188C570.414 6.89333 570.973 6.746 571.597 6.746ZM572.052 8.046C571.393 8.046 570.865 8.25833 570.466 8.683C570.076 9.099 569.881 9.67533 569.881 10.412C569.881 11.1487 570.076 11.7293 570.466 12.154C570.865 12.57 571.393 12.778 572.052 12.778C572.468 12.778 572.841 12.6827 573.17 12.492C573.499 12.2927 573.759 12.0153 573.95 11.66C574.141 11.3047 574.236 10.8887 574.236 10.412C574.236 9.944 574.141 9.53233 573.95 9.177C573.759 8.813 573.499 8.53567 573.17 8.345C572.841 8.14567 572.468 8.046 572.052 8.046ZM581.197 12.713V14H580.287C579.525 14 578.944 13.818 578.545 13.454C578.155 13.0813 577.96 12.466 577.96 11.608V8.098H576.933V6.837H577.96V5.056H579.455V6.837H581.184V8.098H579.455V11.634C579.455 12.0413 579.529 12.323 579.676 12.479C579.832 12.635 580.101 12.713 580.482 12.713H581.197Z" fill="#334D6E"/>
</svg>
