<svg width="481" height="380" viewBox="0 0 481 380" fill="none" xmlns="http://www.w3.org/2000/svg">
<g filter="url(#filter0_d_132_3211)">
<rect x="18" y="12" width="445" height="344" rx="4" fill="white"/>
</g>
<path d="M326.228 41.804C326.228 42.204 326.132 42.576 325.94 42.92C325.748 43.264 325.456 43.544 325.064 43.76C324.672 43.976 324.188 44.084 323.612 44.084C323.052 44.084 322.552 43.984 322.112 43.784C321.68 43.576 321.332 43.296 321.068 42.944C320.812 42.584 320.664 42.176 320.624 41.72H321.788C321.812 41.96 321.892 42.196 322.028 42.428C322.172 42.652 322.372 42.84 322.628 42.992C322.892 43.136 323.208 43.208 323.576 43.208C324.056 43.208 324.424 43.08 324.68 42.824C324.936 42.568 325.064 42.24 325.064 41.84C325.064 41.496 324.972 41.216 324.788 41C324.612 40.784 324.392 40.616 324.128 40.496C323.864 40.368 323.504 40.232 323.048 40.088C322.512 39.912 322.08 39.748 321.752 39.596C321.432 39.436 321.156 39.2 320.924 38.888C320.7 38.576 320.588 38.164 320.588 37.652C320.588 37.212 320.692 36.824 320.9 36.488C321.116 36.152 321.42 35.892 321.812 35.708C322.212 35.524 322.68 35.432 323.216 35.432C324.048 35.432 324.708 35.636 325.196 36.044C325.684 36.444 325.968 36.956 326.048 37.58H324.872C324.808 37.244 324.636 36.948 324.356 36.692C324.076 36.436 323.696 36.308 323.216 36.308C322.776 36.308 322.424 36.424 322.16 36.656C321.896 36.88 321.764 37.2 321.764 37.616C321.764 37.944 321.848 38.212 322.016 38.42C322.192 38.62 322.408 38.78 322.664 38.9C322.92 39.012 323.272 39.14 323.72 39.284C324.264 39.46 324.7 39.628 325.028 39.788C325.364 39.948 325.648 40.192 325.88 40.52C326.112 40.84 326.228 41.268 326.228 41.804ZM331.264 37.304C332.032 37.304 332.652 37.552 333.124 38.048C333.596 38.536 333.832 39.244 333.832 40.172V44H332.74V40.268C332.74 39.612 332.572 39.108 332.236 38.756C331.9 38.404 331.444 38.228 330.868 38.228C330.268 38.228 329.788 38.424 329.428 38.816C329.068 39.2 328.888 39.764 328.888 40.508V44H327.796V35.12H328.888V38.972C329.056 38.436 329.352 38.024 329.776 37.736C330.208 37.448 330.704 37.304 331.264 37.304ZM338.595 37.328C339.227 37.328 339.791 37.464 340.287 37.736C340.791 38.008 341.183 38.4 341.463 38.912C341.751 39.424 341.895 40.024 341.895 40.712C341.895 41.4 341.751 42 341.463 42.512C341.183 43.016 340.791 43.404 340.287 43.676C339.791 43.948 339.227 44.084 338.595 44.084C337.963 44.084 337.395 43.948 336.891 43.676C336.395 43.404 336.003 43.016 335.715 42.512C335.427 42 335.283 41.4 335.283 40.712C335.283 40.024 335.427 39.424 335.715 38.912C336.003 38.4 336.395 38.008 336.891 37.736C337.395 37.464 337.963 37.328 338.595 37.328ZM338.595 38.288C338.203 38.288 337.839 38.376 337.503 38.552C337.175 38.728 336.907 39 336.699 39.368C336.499 39.728 336.399 40.176 336.399 40.712C336.399 41.24 336.499 41.688 336.699 42.056C336.907 42.416 337.175 42.684 337.503 42.86C337.839 43.036 338.203 43.124 338.595 43.124C338.987 43.124 339.347 43.036 339.675 42.86C340.011 42.684 340.279 42.416 340.479 42.056C340.687 41.688 340.791 41.24 340.791 40.712C340.791 40.176 340.687 39.728 340.479 39.368C340.279 39 340.011 38.728 339.675 38.552C339.347 38.376 338.987 38.288 338.595 38.288ZM352.466 37.412L350.57 44H349.394L347.582 38.636L345.758 44H344.57L342.698 37.412H343.802L345.206 42.956L347.03 37.412H348.17L350.006 42.944L351.422 37.412H352.466ZM354.533 37.532V38.816H353.213V37.532H354.533ZM354.533 42.716V44H353.213V42.716H354.533Z" fill="#6A707E"/>
<path d="M364.23 35.54V36.428H361.842V44H360.75V36.428H358.362V35.54H364.23ZM368.884 37.304C369.652 37.304 370.272 37.552 370.744 38.048C371.216 38.536 371.452 39.244 371.452 40.172V44H370.36V40.268C370.36 39.612 370.192 39.108 369.856 38.756C369.52 38.404 369.064 38.228 368.488 38.228C367.888 38.228 367.408 38.424 367.048 38.816C366.688 39.2 366.508 39.764 366.508 40.508V44H365.416V35.12H366.508V38.972C366.676 38.436 366.972 38.024 367.396 37.736C367.828 37.448 368.324 37.304 368.884 37.304ZM373.035 35.48C373.035 35.28 373.103 35.12 373.239 35C373.375 34.872 373.555 34.808 373.779 34.808C374.003 34.808 374.183 34.872 374.319 35C374.455 35.12 374.523 35.28 374.523 35.48C374.523 35.68 374.455 35.844 374.319 35.972C374.183 36.092 374.003 36.152 373.779 36.152C373.555 36.152 373.375 36.092 373.239 35.972C373.103 35.844 373.035 35.68 373.035 35.48ZM374.319 37.412V44H373.227V37.412H374.319ZM378.238 37.328C378.982 37.328 379.578 37.524 380.026 37.916C380.482 38.3 380.758 38.82 380.854 39.476H379.81C379.762 39.084 379.598 38.764 379.318 38.516C379.046 38.26 378.678 38.132 378.214 38.132C377.822 38.132 377.514 38.228 377.29 38.42C377.074 38.604 376.966 38.856 376.966 39.176C376.966 39.416 377.038 39.612 377.182 39.764C377.334 39.908 377.518 40.02 377.734 40.1C377.958 40.172 378.262 40.252 378.646 40.34C379.134 40.452 379.526 40.568 379.822 40.688C380.126 40.8 380.382 40.984 380.59 41.24C380.806 41.496 380.914 41.84 380.914 42.272C380.914 42.808 380.71 43.244 380.302 43.58C379.902 43.916 379.366 44.084 378.694 44.084C377.91 44.084 377.27 43.896 376.774 43.52C376.278 43.144 375.986 42.62 375.898 41.948H376.954C376.994 42.348 377.166 42.672 377.47 42.92C377.782 43.168 378.19 43.292 378.694 43.292C379.07 43.292 379.362 43.196 379.57 43.004C379.786 42.812 379.894 42.56 379.894 42.248C379.894 41.992 379.818 41.788 379.666 41.636C379.514 41.484 379.326 41.368 379.102 41.288C378.878 41.208 378.57 41.124 378.178 41.036C377.69 40.924 377.298 40.812 377.002 40.7C376.714 40.588 376.466 40.412 376.258 40.172C376.058 39.924 375.958 39.592 375.958 39.176C375.958 38.624 376.162 38.18 376.57 37.844C376.978 37.5 377.534 37.328 378.238 37.328ZM393.638 37.304C394.406 37.304 395.022 37.552 395.486 38.048C395.958 38.536 396.194 39.244 396.194 40.172V44H395.102V40.268C395.102 39.62 394.942 39.124 394.622 38.78C394.31 38.436 393.878 38.264 393.326 38.264C392.75 38.264 392.286 38.456 391.934 38.84C391.59 39.216 391.418 39.772 391.418 40.508V44H390.326V40.268C390.326 39.62 390.166 39.124 389.846 38.78C389.526 38.436 389.094 38.264 388.55 38.264C387.966 38.264 387.498 38.456 387.146 38.84C386.802 39.216 386.63 39.772 386.63 40.508V44H385.538V37.412H386.63V38.912C386.79 38.392 387.074 37.996 387.482 37.724C387.898 37.444 388.374 37.304 388.91 37.304C389.47 37.304 389.954 37.448 390.362 37.736C390.778 38.016 391.074 38.432 391.25 38.984C391.434 38.448 391.742 38.036 392.174 37.748C392.606 37.452 393.094 37.304 393.638 37.304ZM400.978 37.328C401.61 37.328 402.174 37.464 402.67 37.736C403.174 38.008 403.566 38.4 403.846 38.912C404.134 39.424 404.278 40.024 404.278 40.712C404.278 41.4 404.134 42 403.846 42.512C403.566 43.016 403.174 43.404 402.67 43.676C402.174 43.948 401.61 44.084 400.978 44.084C400.346 44.084 399.778 43.948 399.274 43.676C398.778 43.404 398.386 43.016 398.098 42.512C397.81 42 397.666 41.4 397.666 40.712C397.666 40.024 397.81 39.424 398.098 38.912C398.386 38.4 398.778 38.008 399.274 37.736C399.778 37.464 400.346 37.328 400.978 37.328ZM400.978 38.288C400.586 38.288 400.222 38.376 399.886 38.552C399.558 38.728 399.29 39 399.082 39.368C398.882 39.728 398.782 40.176 398.782 40.712C398.782 41.24 398.882 41.688 399.082 42.056C399.29 42.416 399.558 42.684 399.886 42.86C400.222 43.036 400.586 43.124 400.978 43.124C401.37 43.124 401.73 43.036 402.058 42.86C402.394 42.684 402.662 42.416 402.862 42.056C403.07 41.688 403.174 41.24 403.174 40.712C403.174 40.176 403.07 39.728 402.862 39.368C402.662 39 402.394 38.728 402.058 38.552C401.73 38.376 401.37 38.288 400.978 38.288ZM409.269 37.304C410.037 37.304 410.657 37.552 411.129 38.048C411.601 38.536 411.837 39.244 411.837 40.172V44H410.745V40.268C410.745 39.612 410.577 39.108 410.241 38.756C409.905 38.404 409.449 38.228 408.873 38.228C408.273 38.228 407.793 38.424 407.433 38.816C407.073 39.2 406.893 39.764 406.893 40.508V44H405.801V37.412H406.893V38.972C407.061 38.436 407.357 38.024 407.781 37.736C408.213 37.448 408.709 37.304 409.269 37.304ZM416.756 43.04V44H415.94C415.268 44 414.764 43.84 414.428 43.52C414.1 43.2 413.936 42.664 413.936 41.912V38.36H412.952V37.412H413.936V35.768H415.04V37.412H416.744V38.36H415.04V41.936C415.04 42.36 415.116 42.652 415.268 42.812C415.428 42.964 415.7 43.04 416.084 43.04H416.756ZM421.657 37.304C422.425 37.304 423.045 37.552 423.517 38.048C423.989 38.536 424.225 39.244 424.225 40.172V44H423.133V40.268C423.133 39.612 422.965 39.108 422.629 38.756C422.293 38.404 421.837 38.228 421.261 38.228C420.661 38.228 420.181 38.424 419.821 38.816C419.461 39.2 419.281 39.764 419.281 40.508V44H418.189V35.12H419.281V38.972C419.449 38.436 419.745 38.024 420.169 37.736C420.601 37.448 421.097 37.304 421.657 37.304Z" fill="#109CF1"/>
<path d="M435.5 42L432.469 39L438.531 39L435.5 42Z" fill="#AEAEAE"/>
<path d="M49.845 33.41V34.79H46.89V44H45.165V34.79H42.225V33.41H49.845ZM54.5359 35.63C55.2859 35.63 55.9259 35.815 56.4559 36.185C56.9859 36.555 57.3609 37.045 57.5809 37.655V35.735H59.2909V44H57.5809V42.08C57.3609 42.69 56.9859 43.18 56.4559 43.55C55.9259 43.92 55.2859 44.105 54.5359 44.105C53.8159 44.105 53.1709 43.935 52.6009 43.595C52.0409 43.255 51.6009 42.765 51.2809 42.125C50.9609 41.485 50.8009 40.73 50.8009 39.86C50.8009 39 50.9609 38.25 51.2809 37.61C51.6009 36.97 52.0409 36.48 52.6009 36.14C53.1709 35.8 53.8159 35.63 54.5359 35.63ZM55.0609 37.13C54.3009 37.13 53.6909 37.375 53.2309 37.865C52.7809 38.345 52.5559 39.01 52.5559 39.86C52.5559 40.71 52.7809 41.38 53.2309 41.87C53.6909 42.35 54.3009 42.59 55.0609 42.59C55.5409 42.59 55.9709 42.48 56.3509 42.26C56.7309 42.03 57.0309 41.71 57.2509 41.3C57.4709 40.89 57.5809 40.41 57.5809 39.86C57.5809 39.32 57.4709 38.845 57.2509 38.435C57.0309 38.015 56.7309 37.695 56.3509 37.475C55.9709 37.245 55.5409 37.13 55.0609 37.13ZM64.158 35.63C65.128 35.63 65.903 35.88 66.483 36.38C67.073 36.87 67.433 37.53 67.563 38.36H65.943C65.873 37.91 65.678 37.55 65.358 37.28C65.048 37 64.633 36.86 64.113 36.86C63.683 36.86 63.348 36.965 63.108 37.175C62.878 37.375 62.763 37.65 62.763 38C62.763 38.26 62.848 38.47 63.018 38.63C63.188 38.79 63.398 38.915 63.648 39.005C63.908 39.095 64.273 39.195 64.743 39.305C65.363 39.445 65.863 39.59 66.243 39.74C66.633 39.89 66.963 40.13 67.233 40.46C67.513 40.78 67.653 41.22 67.653 41.78C67.653 42.47 67.388 43.03 66.858 43.46C66.338 43.89 65.633 44.105 64.743 44.105C63.713 44.105 62.878 43.865 62.238 43.385C61.608 42.905 61.228 42.235 61.098 41.375H62.763C62.813 41.825 63.013 42.19 63.363 42.47C63.713 42.75 64.173 42.89 64.743 42.89C65.153 42.89 65.473 42.785 65.703 42.575C65.943 42.355 66.063 42.08 66.063 41.75C66.063 41.46 65.973 41.23 65.793 41.06C65.613 40.89 65.388 40.76 65.118 40.67C64.848 40.57 64.478 40.47 64.008 40.37C63.408 40.23 62.918 40.09 62.538 39.95C62.168 39.81 61.848 39.585 61.578 39.275C61.318 38.955 61.188 38.525 61.188 37.985C61.188 37.285 61.448 36.72 61.968 36.29C62.498 35.85 63.228 35.63 64.158 35.63ZM74.1478 44L71.1778 40.325V44H69.4678V32.9H71.1778V39.26L74.1178 35.735H76.1728L72.5728 39.845L76.2628 44H74.1478ZM80.193 35.63C81.163 35.63 81.938 35.88 82.518 36.38C83.108 36.87 83.468 37.53 83.598 38.36H81.978C81.908 37.91 81.713 37.55 81.393 37.28C81.083 37 80.668 36.86 80.148 36.86C79.718 36.86 79.383 36.965 79.143 37.175C78.913 37.375 78.798 37.65 78.798 38C78.798 38.26 78.883 38.47 79.053 38.63C79.223 38.79 79.433 38.915 79.683 39.005C79.943 39.095 80.308 39.195 80.778 39.305C81.398 39.445 81.898 39.59 82.278 39.74C82.668 39.89 82.998 40.13 83.268 40.46C83.548 40.78 83.688 41.22 83.688 41.78C83.688 42.47 83.423 43.03 82.893 43.46C82.373 43.89 81.668 44.105 80.778 44.105C79.748 44.105 78.913 43.865 78.273 43.385C77.643 42.905 77.263 42.235 77.133 41.375H78.798C78.848 41.825 79.048 42.19 79.398 42.47C79.748 42.75 80.208 42.89 80.778 42.89C81.188 42.89 81.508 42.785 81.738 42.575C81.978 42.355 82.098 42.08 82.098 41.75C82.098 41.46 82.008 41.23 81.828 41.06C81.648 40.89 81.423 40.76 81.153 40.67C80.883 40.57 80.513 40.47 80.043 40.37C79.443 40.23 78.953 40.09 78.573 39.95C78.203 39.81 77.883 39.585 77.613 39.275C77.353 38.955 77.223 38.525 77.223 37.985C77.223 37.285 77.483 36.72 78.003 36.29C78.533 35.85 79.263 35.63 80.193 35.63Z" fill="#192A3E"/>
<rect x="18" y="66" width="445" height="1" fill="#EBEFF2"/>
<path d="M358.86 185.37H355.76L355.17 187H354.19L356.8 180.08H357.83L360.43 187H359.45L358.86 185.37ZM358.6 184.66L357.31 181.1L356.02 184.66H358.6ZM363.981 181.44C364.681 181.44 365.261 181.627 365.721 182C366.181 182.373 366.464 182.873 366.571 183.5H365.611C365.544 183.107 365.361 182.8 365.061 182.58C364.768 182.353 364.401 182.24 363.961 182.24C363.641 182.24 363.348 182.313 363.081 182.46C362.821 182.607 362.611 182.833 362.451 183.14C362.291 183.44 362.211 183.813 362.211 184.26C362.211 184.707 362.291 185.083 362.451 185.39C362.611 185.69 362.821 185.913 363.081 186.06C363.348 186.207 363.641 186.28 363.961 186.28C364.401 186.28 364.768 186.167 365.061 185.94C365.361 185.713 365.544 185.403 365.611 185.01H366.571C366.464 185.643 366.181 186.147 365.721 186.52C365.261 186.887 364.681 187.07 363.981 187.07C363.454 187.07 362.988 186.957 362.581 186.73C362.174 186.503 361.854 186.18 361.621 185.76C361.394 185.333 361.281 184.833 361.281 184.26C361.281 183.687 361.394 183.187 361.621 182.76C361.854 182.333 362.174 182.007 362.581 181.78C362.988 181.553 363.454 181.44 363.981 181.44ZM370.582 186.2V187H369.902C369.342 187 368.922 186.867 368.642 186.6C368.369 186.333 368.232 185.887 368.232 185.26V182.3H367.412V181.51H368.232V180.14H369.152V181.51H370.572V182.3H369.152V185.28C369.152 185.633 369.215 185.877 369.342 186.01C369.475 186.137 369.702 186.2 370.022 186.2H370.582ZM371.733 179.9C371.733 179.733 371.789 179.6 371.903 179.5C372.016 179.393 372.166 179.34 372.353 179.34C372.539 179.34 372.689 179.393 372.803 179.5C372.916 179.6 372.973 179.733 372.973 179.9C372.973 180.067 372.916 180.203 372.803 180.31C372.689 180.41 372.539 180.46 372.353 180.46C372.166 180.46 372.016 180.41 371.903 180.31C371.789 180.203 371.733 180.067 371.733 179.9ZM372.803 181.51V187H371.893V181.51H372.803ZM376.596 186.03L378.296 181.51H379.276L377.126 187H376.046L373.896 181.51H374.876L376.596 186.03ZM385.419 183.95C385.419 184.143 385.405 184.31 385.379 184.45H380.989C381.009 185.077 381.185 185.547 381.519 185.86C381.859 186.173 382.272 186.33 382.759 186.33C383.199 186.33 383.565 186.22 383.859 186C384.159 185.773 384.342 185.473 384.409 185.1H385.379C385.312 185.48 385.162 185.82 384.929 186.12C384.702 186.42 384.405 186.653 384.039 186.82C383.672 186.987 383.259 187.07 382.799 187.07C382.272 187.07 381.805 186.957 381.399 186.73C380.992 186.503 380.672 186.18 380.439 185.76C380.212 185.333 380.099 184.833 380.099 184.26C380.099 183.687 380.212 183.187 380.439 182.76C380.672 182.333 380.992 182.007 381.399 181.78C381.805 181.553 382.272 181.44 382.799 181.44C383.332 181.44 383.795 181.553 384.189 181.78C384.589 182.007 384.892 182.31 385.099 182.69C385.312 183.07 385.419 183.49 385.419 183.95ZM384.499 184.01C384.519 183.603 384.452 183.263 384.299 182.99C384.145 182.717 383.935 182.513 383.669 182.38C383.402 182.247 383.112 182.18 382.799 182.18C382.299 182.18 381.879 182.337 381.539 182.65C381.199 182.957 381.015 183.41 380.989 184.01H384.499Z" fill="#192A3E"/>
<circle cx="342" cy="184" r="3" stroke="#FFB946" stroke-width="2"/>
<path d="M357.85 207.88C358.71 207.88 359.42 208.093 359.98 208.52C360.54 208.94 360.927 209.517 361.14 210.25H360.18C360 209.783 359.71 209.413 359.31 209.14C358.91 208.86 358.42 208.72 357.84 208.72C357.38 208.72 356.967 208.833 356.6 209.06C356.24 209.28 355.953 209.6 355.74 210.02C355.533 210.433 355.43 210.92 355.43 211.48C355.43 212.033 355.533 212.517 355.74 212.93C355.953 213.343 356.24 213.663 356.6 213.89C356.967 214.11 357.38 214.22 357.84 214.22C358.42 214.22 358.91 214.083 359.31 213.81C359.71 213.53 360 213.157 360.18 212.69H361.14C360.927 213.423 360.54 214.003 359.98 214.43C359.42 214.85 358.71 215.06 357.85 215.06C357.19 215.06 356.607 214.91 356.1 214.61C355.593 214.303 355.197 213.88 354.91 213.34C354.63 212.793 354.49 212.173 354.49 211.48C354.49 210.78 354.63 210.157 354.91 209.61C355.197 209.063 355.593 208.64 356.1 208.34C356.607 208.033 357.19 207.88 357.85 207.88ZM365.047 209.44C365.574 209.44 366.044 209.553 366.457 209.78C366.877 210.007 367.204 210.333 367.437 210.76C367.677 211.187 367.797 211.687 367.797 212.26C367.797 212.833 367.677 213.333 367.437 213.76C367.204 214.18 366.877 214.503 366.457 214.73C366.044 214.957 365.574 215.07 365.047 215.07C364.52 215.07 364.047 214.957 363.627 214.73C363.214 214.503 362.887 214.18 362.647 213.76C362.407 213.333 362.287 212.833 362.287 212.26C362.287 211.687 362.407 211.187 362.647 210.76C362.887 210.333 363.214 210.007 363.627 209.78C364.047 209.553 364.52 209.44 365.047 209.44ZM365.047 210.24C364.72 210.24 364.417 210.313 364.137 210.46C363.864 210.607 363.64 210.833 363.467 211.14C363.3 211.44 363.217 211.813 363.217 212.26C363.217 212.7 363.3 213.073 363.467 213.38C363.64 213.68 363.864 213.903 364.137 214.05C364.417 214.197 364.72 214.27 365.047 214.27C365.374 214.27 365.674 214.197 365.947 214.05C366.227 213.903 366.45 213.68 366.617 213.38C366.79 213.073 366.877 212.7 366.877 212.26C366.877 211.813 366.79 211.44 366.617 211.14C366.45 210.833 366.227 210.607 365.947 210.46C365.674 210.313 365.374 210.24 365.047 210.24ZM375.933 209.42C376.573 209.42 377.086 209.627 377.473 210.04C377.866 210.447 378.063 211.037 378.063 211.81V215H377.153V211.89C377.153 211.35 377.019 210.937 376.753 210.65C376.493 210.363 376.133 210.22 375.673 210.22C375.193 210.22 374.806 210.38 374.513 210.7C374.226 211.013 374.083 211.477 374.083 212.09V215H373.173V211.89C373.173 211.35 373.039 210.937 372.773 210.65C372.506 210.363 372.146 210.22 371.693 210.22C371.206 210.22 370.816 210.38 370.523 210.7C370.236 211.013 370.093 211.477 370.093 212.09V215H369.183V209.51H370.093V210.76C370.226 210.327 370.463 209.997 370.803 209.77C371.149 209.537 371.546 209.42 371.993 209.42C372.459 209.42 372.863 209.54 373.203 209.78C373.549 210.013 373.796 210.36 373.943 210.82C374.096 210.373 374.353 210.03 374.713 209.79C375.073 209.543 375.479 209.42 375.933 209.42ZM382.706 209.44C383.192 209.44 383.626 209.553 384.006 209.78C384.386 210.007 384.682 210.333 384.896 210.76C385.116 211.187 385.226 211.687 385.226 212.26C385.226 212.833 385.116 213.333 384.896 213.76C384.682 214.18 384.386 214.503 384.006 214.73C383.626 214.957 383.192 215.07 382.706 215.07C382.172 215.07 381.719 214.937 381.346 214.67C380.979 214.397 380.726 214.04 380.586 213.6V217.6H379.676V209.51H380.586V210.91C380.726 210.47 380.979 210.117 381.346 209.85C381.719 209.577 382.172 209.44 382.706 209.44ZM382.446 210.25C382.092 210.25 381.772 210.333 381.486 210.5C381.199 210.66 380.976 210.893 380.816 211.2C380.656 211.507 380.576 211.86 380.576 212.26C380.576 212.66 380.656 213.013 380.816 213.32C380.976 213.62 381.199 213.853 381.486 214.02C381.772 214.187 382.092 214.27 382.446 214.27C383.012 214.27 383.462 214.093 383.796 213.74C384.136 213.38 384.306 212.887 384.306 212.26C384.306 211.633 384.136 211.143 383.796 210.79C383.462 210.43 383.012 210.25 382.446 210.25ZM387.524 207.6V215H386.614V207.6H387.524ZM394.237 211.95C394.237 212.143 394.224 212.31 394.197 212.45H389.807C389.827 213.077 390.004 213.547 390.337 213.86C390.677 214.173 391.09 214.33 391.577 214.33C392.017 214.33 392.384 214.22 392.677 214C392.977 213.773 393.16 213.473 393.227 213.1H394.197C394.13 213.48 393.98 213.82 393.747 214.12C393.52 214.42 393.224 214.653 392.857 214.82C392.49 214.987 392.077 215.07 391.617 215.07C391.09 215.07 390.624 214.957 390.217 214.73C389.81 214.503 389.49 214.18 389.257 213.76C389.03 213.333 388.917 212.833 388.917 212.26C388.917 211.687 389.03 211.187 389.257 210.76C389.49 210.333 389.81 210.007 390.217 209.78C390.624 209.553 391.09 209.44 391.617 209.44C392.15 209.44 392.614 209.553 393.007 209.78C393.407 210.007 393.71 210.31 393.917 210.69C394.13 211.07 394.237 211.49 394.237 211.95ZM393.317 212.01C393.337 211.603 393.27 211.263 393.117 210.99C392.964 210.717 392.754 210.513 392.487 210.38C392.22 210.247 391.93 210.18 391.617 210.18C391.117 210.18 390.697 210.337 390.357 210.65C390.017 210.957 389.834 211.41 389.807 212.01H393.317ZM398.247 214.2V215H397.567C397.007 215 396.587 214.867 396.307 214.6C396.034 214.333 395.897 213.887 395.897 213.26V210.3H395.077V209.51H395.897V208.14H396.817V209.51H398.237V210.3H396.817V213.28C396.817 213.633 396.881 213.877 397.007 214.01C397.141 214.137 397.367 214.2 397.687 214.2H398.247ZM404.608 211.95C404.608 212.143 404.594 212.31 404.568 212.45H400.178C400.198 213.077 400.374 213.547 400.708 213.86C401.048 214.173 401.461 214.33 401.948 214.33C402.388 214.33 402.754 214.22 403.048 214C403.348 213.773 403.531 213.473 403.598 213.1H404.568C404.501 213.48 404.351 213.82 404.118 214.12C403.891 214.42 403.594 214.653 403.228 214.82C402.861 214.987 402.448 215.07 401.988 215.07C401.461 215.07 400.994 214.957 400.588 214.73C400.181 214.503 399.861 214.18 399.628 213.76C399.401 213.333 399.288 212.833 399.288 212.26C399.288 211.687 399.401 211.187 399.628 210.76C399.861 210.333 400.181 210.007 400.588 209.78C400.994 209.553 401.461 209.44 401.988 209.44C402.521 209.44 402.984 209.553 403.378 209.78C403.778 210.007 404.081 210.31 404.288 210.69C404.501 211.07 404.608 211.49 404.608 211.95ZM403.688 212.01C403.708 211.603 403.641 211.263 403.488 210.99C403.334 210.717 403.124 210.513 402.858 210.38C402.591 210.247 402.301 210.18 401.988 210.18C401.488 210.18 401.068 210.337 400.728 210.65C400.388 210.957 400.204 211.41 400.178 212.01H403.688ZM408.248 209.44C408.781 209.44 409.231 209.573 409.598 209.84C409.971 210.107 410.231 210.463 410.378 210.91V207.6H411.288V215H410.378V213.6C410.231 214.047 409.971 214.403 409.598 214.67C409.231 214.937 408.781 215.07 408.248 215.07C407.761 215.07 407.328 214.957 406.948 214.73C406.568 214.503 406.268 214.18 406.048 213.76C405.835 213.333 405.728 212.833 405.728 212.26C405.728 211.687 405.835 211.187 406.048 210.76C406.268 210.333 406.568 210.007 406.948 209.78C407.328 209.553 407.761 209.44 408.248 209.44ZM408.508 210.25C407.948 210.25 407.498 210.43 407.158 210.79C406.825 211.143 406.658 211.633 406.658 212.26C406.658 212.887 406.825 213.38 407.158 213.74C407.498 214.093 407.948 214.27 408.508 214.27C408.868 214.27 409.188 214.187 409.468 214.02C409.755 213.853 409.978 213.62 410.138 213.32C410.298 213.013 410.378 212.66 410.378 212.26C410.378 211.86 410.298 211.507 410.138 211.2C409.978 210.893 409.755 210.66 409.468 210.5C409.188 210.333 408.868 210.25 408.508 210.25Z" fill="#192A3E"/>
<circle cx="342" cy="212" r="3" stroke="#2ED47A" stroke-width="2"/>
<path d="M355.64 236.69V239.1H358.32V239.8H355.64V242.26H358.62V243H354.73V235.95H358.62V236.69H355.64ZM362.879 237.42C363.519 237.42 364.035 237.627 364.429 238.04C364.822 238.447 365.019 239.037 365.019 239.81V243H364.109V239.89C364.109 239.343 363.969 238.923 363.689 238.63C363.409 238.337 363.029 238.19 362.549 238.19C362.049 238.19 361.649 238.353 361.349 238.68C361.049 239 360.899 239.47 360.899 240.09V243H359.989V237.51H360.899V238.81C361.039 238.363 361.285 238.02 361.639 237.78C361.999 237.54 362.412 237.42 362.879 237.42ZM368.864 237.44C369.398 237.44 369.848 237.573 370.214 237.84C370.588 238.107 370.848 238.463 370.994 238.91V235.6H371.904V243H370.994V241.6C370.848 242.047 370.588 242.403 370.214 242.67C369.848 242.937 369.398 243.07 368.864 243.07C368.378 243.07 367.944 242.957 367.564 242.73C367.184 242.503 366.884 242.18 366.664 241.76C366.451 241.333 366.344 240.833 366.344 240.26C366.344 239.687 366.451 239.187 366.664 238.76C366.884 238.333 367.184 238.007 367.564 237.78C367.944 237.553 368.378 237.44 368.864 237.44ZM369.124 238.25C368.564 238.25 368.114 238.43 367.774 238.79C367.441 239.143 367.274 239.633 367.274 240.26C367.274 240.887 367.441 241.38 367.774 241.74C368.114 242.093 368.564 242.27 369.124 242.27C369.484 242.27 369.804 242.187 370.084 242.02C370.371 241.853 370.594 241.62 370.754 241.32C370.914 241.013 370.994 240.66 370.994 240.26C370.994 239.86 370.914 239.507 370.754 239.2C370.594 238.893 370.371 238.66 370.084 238.5C369.804 238.333 369.484 238.25 369.124 238.25ZM378.603 239.95C378.603 240.143 378.589 240.31 378.563 240.45H374.173C374.193 241.077 374.369 241.547 374.703 241.86C375.043 242.173 375.456 242.33 375.943 242.33C376.383 242.33 376.749 242.22 377.043 242C377.343 241.773 377.526 241.473 377.593 241.1H378.563C378.496 241.48 378.346 241.82 378.113 242.12C377.886 242.42 377.589 242.653 377.223 242.82C376.856 242.987 376.443 243.07 375.983 243.07C375.456 243.07 374.989 242.957 374.583 242.73C374.176 242.503 373.856 242.18 373.623 241.76C373.396 241.333 373.283 240.833 373.283 240.26C373.283 239.687 373.396 239.187 373.623 238.76C373.856 238.333 374.176 238.007 374.583 237.78C374.989 237.553 375.456 237.44 375.983 237.44C376.516 237.44 376.979 237.553 377.373 237.78C377.773 238.007 378.076 238.31 378.283 238.69C378.496 239.07 378.603 239.49 378.603 239.95ZM377.683 240.01C377.703 239.603 377.636 239.263 377.483 238.99C377.329 238.717 377.119 238.513 376.853 238.38C376.586 238.247 376.296 238.18 375.983 238.18C375.483 238.18 375.063 238.337 374.723 238.65C374.383 238.957 374.199 239.41 374.173 240.01H377.683ZM382.243 237.44C382.776 237.44 383.226 237.573 383.593 237.84C383.966 238.107 384.226 238.463 384.373 238.91V235.6H385.283V243H384.373V241.6C384.226 242.047 383.966 242.403 383.593 242.67C383.226 242.937 382.776 243.07 382.243 243.07C381.756 243.07 381.323 242.957 380.943 242.73C380.563 242.503 380.263 242.18 380.043 241.76C379.83 241.333 379.723 240.833 379.723 240.26C379.723 239.687 379.83 239.187 380.043 238.76C380.263 238.333 380.563 238.007 380.943 237.78C381.323 237.553 381.756 237.44 382.243 237.44ZM382.503 238.25C381.943 238.25 381.493 238.43 381.153 238.79C380.82 239.143 380.653 239.633 380.653 240.26C380.653 240.887 380.82 241.38 381.153 241.74C381.493 242.093 381.943 242.27 382.503 242.27C382.863 242.27 383.183 242.187 383.463 242.02C383.75 241.853 383.973 241.62 384.133 241.32C384.293 241.013 384.373 240.66 384.373 240.26C384.373 239.86 384.293 239.507 384.133 239.2C383.973 238.893 383.75 238.66 383.463 238.5C383.183 238.333 382.863 238.25 382.503 238.25Z" fill="#192A3E"/>
<circle cx="342" cy="240" r="3" stroke="#F7685B" stroke-width="2"/>
<circle cx="178" cy="212" r="112" stroke="#FFB946" stroke-width="8"/>
<path d="M148.061 201.104C147.389 196.699 145.093 194.496 141.173 194.496C138.335 194.496 136.207 195.635 134.789 197.912C133.37 200.152 132.661 203.68 132.661 208.496L132.717 210.4C133.277 208.384 134.49 206.779 136.357 205.584C138.223 204.389 140.426 203.792 142.965 203.792C146.847 203.792 149.89 204.949 152.093 207.264C154.295 209.579 155.397 212.845 155.397 217.064C155.397 219.603 154.893 221.88 153.885 223.896C152.877 225.875 151.365 227.461 149.349 228.656C147.333 229.813 144.85 230.392 141.901 230.392C136.189 230.392 132.269 228.619 130.141 225.072C128.013 221.525 126.949 216.653 126.949 210.456C126.949 203.363 128.087 198.061 130.365 194.552C132.642 191.043 136.375 189.288 141.565 189.288C145.447 189.288 148.415 190.389 150.469 192.592C152.559 194.795 153.773 197.632 154.109 201.104H148.061ZM133.277 216.336C133.277 218.763 133.986 220.797 135.405 222.44C136.823 224.045 138.914 224.848 141.677 224.848C144.029 224.848 145.895 224.157 147.277 222.776C148.695 221.395 149.405 219.472 149.405 217.008C149.405 214.357 148.695 212.323 147.277 210.904C145.858 209.485 143.935 208.776 141.509 208.776C139.306 208.776 137.383 209.429 135.741 210.736C134.098 212.043 133.277 213.909 133.277 216.336ZM161.279 209.952C161.279 216.261 162.399 221.208 164.639 224.792C166.879 228.339 170.613 230.112 175.839 230.112C181.066 230.112 184.799 228.32 187.039 224.736C189.279 221.152 190.399 216.224 190.399 209.952C190.399 203.717 189.279 198.827 187.039 195.28C184.799 191.696 181.066 189.904 175.839 189.904C170.613 189.904 166.879 191.677 164.639 195.224C162.399 198.771 161.279 203.68 161.279 209.952ZM184.015 209.952C184.015 214.507 183.455 217.997 182.335 220.424C181.215 222.851 179.05 224.064 175.839 224.064C172.591 224.064 170.407 222.851 169.287 220.424C168.167 217.997 167.607 214.507 167.607 209.952C167.607 205.435 168.167 201.981 169.287 199.592C170.407 197.203 172.591 196.008 175.839 196.008C179.05 196.008 181.215 197.221 182.335 199.648C183.455 202.037 184.015 205.472 184.015 209.952ZM203.506 189.904C206.007 189.904 208.042 190.688 209.61 192.256C211.178 193.787 211.962 195.877 211.962 198.528C211.962 201.179 211.178 203.269 209.61 204.8C208.042 206.331 206.007 207.096 203.506 207.096C201.004 207.096 198.951 206.331 197.346 204.8C195.778 203.269 194.994 201.179 194.994 198.528C194.994 195.877 195.778 193.787 197.346 192.256C198.951 190.688 201.004 189.904 203.506 189.904ZM227.194 190.408L204.85 230H198.578L220.978 190.408H227.194ZM199.362 198.528C199.362 199.947 199.735 201.085 200.482 201.944C201.228 202.765 202.218 203.176 203.45 203.176C204.682 203.176 205.671 202.747 206.418 201.888C207.202 201.029 207.594 199.909 207.594 198.528C207.594 197.109 207.202 195.971 206.418 195.112C205.671 194.253 204.682 193.824 203.45 193.824C202.218 193.824 201.228 194.253 200.482 195.112C199.735 195.971 199.362 197.109 199.362 198.528ZM222.322 213.312C224.823 213.312 226.858 214.077 228.426 215.608C230.031 217.139 230.834 219.229 230.834 221.88C230.834 224.531 230.031 226.64 228.426 228.208C226.858 229.739 224.823 230.504 222.322 230.504C219.858 230.504 217.823 229.739 216.218 228.208C214.65 226.64 213.866 224.531 213.866 221.88C213.866 219.267 214.65 217.195 216.218 215.664C217.823 214.096 219.858 213.312 222.322 213.312ZM218.234 221.88C218.234 223.299 218.607 224.437 219.354 225.296C220.1 226.155 221.09 226.584 222.322 226.584C223.554 226.584 224.543 226.155 225.29 225.296C226.074 224.437 226.466 223.299 226.466 221.88C226.466 220.499 226.074 219.379 225.29 218.52C224.543 217.661 223.554 217.232 222.322 217.232C221.09 217.232 220.1 217.661 219.354 218.52C218.607 219.379 218.234 220.499 218.234 221.88Z" fill="#2ED47A"/>
<path d="M290 212C290 191.333 284.282 171.069 273.478 153.451C262.674 135.833 247.207 121.548 228.787 112.177C210.367 102.805 189.713 98.7132 169.112 100.353C148.51 101.993 128.764 109.302 112.059 121.47C95.3538 133.637 82.3411 150.19 74.461 169.295C66.581 188.401 64.1409 209.314 67.4107 229.721C70.6806 250.127 79.533 269.231 92.9881 284.918C106.443 300.604 123.976 312.262 143.647 318.601" stroke="#F7685B" stroke-width="8" stroke-linecap="round"/>
<path d="M290 212C290 194.325 285.817 176.901 277.793 161.153C269.769 145.405 258.131 131.779 243.832 121.39C229.533 111.001 212.978 104.144 195.521 101.379C178.064 98.614 160.2 100.02 143.39 105.482C126.58 110.943 111.302 120.306 98.804 132.804C86.3061 145.302 76.9435 160.58 71.4817 177.39C66.0199 194.2 64.614 212.064 67.3789 229.521C70.1439 246.978 77.0012 263.533 87.3901 277.832" stroke="#2ED47A" stroke-width="8" stroke-linecap="round" stroke-linejoin="round"/>
<defs>
<filter id="filter0_d_132_3211" x="0" y="0" width="481" height="380" filterUnits="userSpaceOnUse" color-interpolation-filters="sRGB">
<feFlood flood-opacity="0" result="BackgroundImageFix"/>
<feColorMatrix in="SourceAlpha" type="matrix" values="0 0 0 0 0 0 0 0 0 0 0 0 0 0 0 0 0 0 127 0" result="hardAlpha"/>
<feOffset dy="6"/>
<feGaussianBlur stdDeviation="9"/>
<feColorMatrix type="matrix" values="0 0 0 0 0 0 0 0 0 0 0 0 0 0 0 0 0 0 0.06 0"/>
<feBlend mode="normal" in2="BackgroundImageFix" result="effect1_dropShadow_132_3211"/>
<feBlend mode="normal" in="SourceGraphic" in2="effect1_dropShadow_132_3211" result="shape"/>
</filter>
</defs>
</svg>
